<?xml version="1.0" encoding="UTF-8"?><svg id="Ebene_2" xmlns="http://www.w3.org/2000/svg" viewBox="0 0 53.63 50"><g id="mid"><g id="icon"><path fill="currentColor" stroke-width="0" d="M36.77,0h-19.91c-.54,0-1.07.14-1.54.41l-2.15,1.24c-.06.03-.05.09-.05.11,0,.02.02.07.08.08l13.03,2.49c.39.07.78.07,1.16,0l13.04-2.5c.06-.01.08-.06.08-.08s0-.07-.05-.11l-2.15-1.24c-.47-.27-1-.41-1.54-.41Z"/><path fill="currentColor" stroke-width="0" d="M.51,21.72c1.55,1.89,7.87,9.57,9.6,11.66.2.24.55.3.82.14l14.63-8.87c.19-.11.3-.32.3-.54V6.72c0-.3-.22-.56-.51-.62l-14.14-2.7s-.08-.01-.12-.01c-.22,0-.43.12-.54.31C9.08,6.17,1.98,18.34.45,21c-.13.23-.11.52.06.72Z"/><path fill="currentColor" stroke-width="0" d="M9.06,35.09L.18,24.31s-.09-.04-.11-.03c-.02,0-.07.03-.07.1v3.12c0,.55.15,1.08.42,1.56l10.11,17.33c.27.46.66.85,1.12,1.12l2.16,1.25c.05.03.1,0,.12,0s.05-.05.03-.11l-4.37-12.58c-.12-.35-.3-.67-.53-.95Z"/><path fill="currentColor" stroke-width="0" d="M27.13,26.31c-.2-.12-.46-.12-.66,0l-14.65,8.89c-.26.16-.37.46-.27.75l1.51,4.35c1.21,3.49,2.71,7.79,3.22,9.27.09.25.33.42.59.42,2.97.02,16.89.02,19.86,0,.27,0,.51-.17.59-.42l4.71-13.61c.1-.28-.02-.59-.27-.75l-14.65-8.9Z"/><path fill="currentColor" stroke-width="0" d="M41.99,47.49c.46-.27.85-.65,1.12-1.12l10.1-17.32c.28-.47.42-1.01.42-1.55v-3.13c0-.07-.05-.09-.07-.1,0,0-.02,0-.04,0-.02,0-.05,0-.08.04l-8.9,10.8c-.23.28-.41.6-.53.95l-4.35,12.56c-.02.06.02.1.03.11.01.01.06.04.12,0l2.16-1.25Z"/><path fill="currentColor" stroke-width="0" d="M27.76,6.72v17.39c0,.22.12.43.3.54l14.63,8.87c.27.16.62.1.82-.14l9.6-11.67c.17-.2.19-.49.06-.72-1.53-2.66-8.63-14.83-10.09-17.31-.11-.19-.32-.31-.54-.31-.04,0-.08,0-.12.01l-14.14,2.7c-.3.06-.51.32-.51.62Z"/></g></g></svg>