<?xml version="1.0" encoding="UTF-8"?><svg id="Ebene_2" xmlns="http://www.w3.org/2000/svg" viewBox="0 0 445.25 101"><g id="big"><g id="logo"><g id="txt"><path fill="currentColor" stroke-width="0" d="M198.02,28.85c-2.17-3.79-5.24-6.76-9.23-8.89-3.99-2.13-8.71-3.19-14.19-3.19h-29.41c-.43,0-.78.35-.78.78v65.75c0,.43.35.78.78.78h16.1c.43,0,.78-.35.78-.78v-15.35c0-.43.35-.78.78-.78h11.21c5.59,0,10.42-1.04,14.49-3.11,4.07-2.07,7.2-4.99,9.41-8.76,2.2-3.77,3.3-8.18,3.3-13.22s-1.08-9.43-3.25-13.22ZM181.57,47.94c-.93,1.68-2.29,2.98-4.09,3.91-1.8.93-4.03,1.39-6.69,1.39h-7.93c-.43,0-.78-.35-.78-.78v-20.67c0-.43.35-.78.78-.78h7.93c2.64,0,4.87.45,6.68,1.35,1.81.9,3.18,2.18,4.1,3.84.93,1.65,1.39,3.61,1.39,5.87s-.46,4.19-1.39,5.87Z"/><path fill="currentColor" stroke-width="0" d="M262.74,84.08h16.92c.63,0,1-.71.64-1.23l-13.81-20.08c-.27-.39-.12-.91.31-1.12,3.64-1.82,6.49-4.37,8.53-7.64,2.21-3.53,3.32-7.84,3.32-12.9s-1.08-9.32-3.25-12.97c-2.17-3.65-5.24-6.46-9.23-8.42-3.99-1.96-8.71-2.94-14.19-2.94h-29.41c-.43,0-.78.35-.78.78v65.75c0,.43.35.78.78.78h16.1c.43,0,.78-.35.78-.78v-17.67c0-.43.35-.78.78-.78h7.86c.26,0,.5.13.64.34l12.64,18.18c.31.45.82.71,1.37.71ZM239.45,31.79c0-.43.35-.78.78-.78h7.93c2.64,0,4.87.37,6.68,1.12,1.81.75,3.18,1.87,4.1,3.36.93,1.48,1.39,3.36,1.39,5.62s-.46,4.11-1.39,5.55c-.93,1.44-2.29,2.51-4.09,3.21-1.8.7-4.03,1.05-6.69,1.05h-7.93c-.43,0-.78-.35-.78-.78v-18.35Z"/><path fill="currentColor" stroke-width="0" d="M299.1,83.29V17.55c0-.43.35-.78.78-.78h49.4c.43,0,.78.35.78.78v12.74c0,.46-.37.83-.83.83h-31.69c-.43,0-.78.35-.78.78v10.53c0,.43.35.78.78.78h29.07c.46,0,.84.38.84.84v12.7c0,.46-.38.84-.84.84h-29.07c-.43,0-.78.35-.78.78v10.57c0,.43.35.78.78.78h31.69c.46,0,.83.37.83.83v12.74c0,.43-.35.78-.78.78h-49.4c-.43,0-.78-.35-.78-.78Z"/><path fill="currentColor" stroke-width="0" d="M426.28,84.08h18.19c.55,0,.93-.55.73-1.07l-25.79-65.75c-.12-.3-.41-.5-.73-.5h-24.12c-.32,0-.61.2-.73.5l-25.79,65.75c-.2.51.18,1.07.73,1.07h18.19c.6,0,1.13-.37,1.33-.93l4.62-12.68c.11-.31.41-.51.73-.51h25.93c.33,0,.62.21.73.51l4.63,12.69c.2.56.74.93,1.33.93ZM397.95,56.55l7.9-23.25c.24-.71,1.24-.71,1.48,0l7.93,23.25c.17.51-.2,1.03-.74,1.03h-15.83c-.54,0-.91-.53-.74-1.03Z"/></g><g id="icon"><path fill="currentColor" stroke-width="0" d="M81.56,4.25c.24-.05.36-.23.38-.39.03-.16-.02-.37-.23-.49l-4.32-2.49c-.98-.57-2.1-.87-3.24-.87h-40c-1.13,0-2.25.3-3.24.87l-4.33,2.5c-.21.12-.26.34-.23.49.03.16.14.35.38.39l26.17,5.01c.81.15,1.63.15,2.43,0l26.21-5.02Z"/><path fill="currentColor" stroke-width="0" d="M21.22,7.56C18.03,12.95,3.81,37.33.94,42.34c-.32.55-.26,1.25.15,1.75,1.81,2.2,6.86,8.34,11.45,13.92l7.83,9.52c.48.59,1.34.73,1.99.34l29.39-17.83c.46-.28.74-.78.74-1.32V13.78c0-.74-.53-1.38-1.25-1.51-5.09-.97-23.69-4.53-28.41-5.43-.1-.02-.19-.03-.29-.03-.54,0-1.05.28-1.33.76Z"/><path fill="currentColor" stroke-width="0" d="M28.57,97.86l-8.78-25.27c-.25-.73-.63-1.39-1.12-1.99L.85,48.93c-.16-.19-.38-.2-.53-.15-.15.06-.32.2-.32.45v6.28c0,1.15.3,2.27.88,3.26l20.31,34.81c.57.97,1.38,1.78,2.35,2.34l4.34,2.5c.21.12.42.06.55-.05.12-.1.23-.29.15-.53Z"/><path fill="currentColor" stroke-width="0" d="M75.55,99.93c1.58-4.56,7.79-22.48,9.47-27.33.24-.68-.04-1.45-.66-1.82l-29.43-17.88c-.25-.15-.52-.23-.8-.23s-.55.07-.8.22l-29.43,17.85c-.62.37-.89,1.14-.66,1.82,1.69,4.86,7.93,22.81,9.51,27.36.21.62.79,1.03,1.45,1.04,5.96.04,33.93.04,39.9,0,.65,0,1.23-.42,1.45-1.04Z"/><path fill="currentColor" stroke-width="0" d="M84.76,95.92c.97-.56,1.79-1.37,2.36-2.34l20.3-34.81c.58-.99.88-2.12.88-3.26v-6.28c0-.25-.16-.4-.32-.45-.05-.02-.11-.03-.17-.03-.12,0-.26.05-.36.18l-17.87,21.7c-.49.59-.87,1.27-1.12,2l-8.74,25.24c-.08.23.02.42.15.53.12.1.33.17.54.04l4.35-2.51Z"/><path fill="currentColor" stroke-width="0" d="M55.77,13.78v34.93c0,.54.28,1.04.74,1.32l29.39,17.83c.65.4,1.51.25,1.99-.34l6.18-7.52c4.96-6.03,11.06-13.45,13.1-15.92.4-.49.46-1.19.15-1.75-2.88-5.02-17.09-29.4-20.28-34.78-.33-.56-.98-.85-1.62-.73-4.72.9-23.31,4.46-28.41,5.43-.73.14-1.25.78-1.25,1.52Z"/></g></g></g></svg>